<?xml version="1.0" encoding="UTF-8"?>
<svg id="Livello_1" data-name="Livello 1" xmlns="http://www.w3.org/2000/svg" xmlns:xlink="http://www.w3.org/1999/xlink" viewBox="0 0 901.95 1620">
  <defs>
    <style>
      .cls-1 {
        fill: none;
      }

      .cls-2 {
        fill: #1d1d1b;
      }

      .cls-3 {
        clip-path: url(#clippath);
      }
    </style>
    <clipPath id="clippath">
      <rect class="cls-1" width="901.95" height="1620"/>
    </clipPath>
  </defs>
  <g class="cls-3">
    <path class="cls-2" d="M328.38,976.38c0,45.97-39.41,74.43-78.81,74.43-43.78,0-76.62-30.65-76.62-76.62,0-52.54,41.59-91.95,105.08-126.97l50.35,129.16ZM109.46,1466.76c0-85.38,67.86-153.24,155.43-153.24s155.43,67.86,155.43,153.24-67.86,153.24-155.43,153.24-155.43-67.86-155.43-153.24M669.89,361.22c0,142.3-131.35,218.92-271.46,291.16l-28.46-306.49c0-81,63.49-142.3,146.68-142.3,89.76,0,153.24,65.68,153.24,157.62M24.08,987.32c0,113.84,85.38,199.22,194.84,199.22,116.03,0,205.78-76.62,205.78-201.41l-15.32-199.22c212.35-85.38,492.57-203.59,492.57-486C901.95,116.03,768.41,2.19,591.08,2.19c-102.89,0-194.84,50.35-240.81,126.97C330.57,50.35,260.51,0,177.32,0,78.81,0,0,67.86,0,172.95l232.05,562.62c-113.84,61.3-207.97,135.73-207.97,251.76"/>
  </g>
</svg>