<?xml version="1.0" encoding="UTF-8"?>
<svg id="Livello_1" data-name="Livello 1" xmlns="http://www.w3.org/2000/svg" xmlns:xlink="http://www.w3.org/1999/xlink" viewBox="0 0 750 1347.09">
  <defs>
    <style>
      .cls-1 {
        fill: none;
      }

      .cls-2 {
        fill: #1d1d1b;
      }

      .cls-3 {
        clip-path: url(#clippath);
      }
    </style>
    <clipPath id="clippath">
      <rect class="cls-1" width="750" height="1347.09"/>
    </clipPath>
  </defs>
  <g class="cls-3">
    <path class="cls-2" d="M273.06,811.89c0,38.23-32.77,61.89-65.53,61.89-36.41,0-63.71-25.49-63.71-63.71,0-43.69,34.59-76.46,87.38-105.58l41.87,107.4ZM91.02,1219.66c0-71,56.43-127.43,129.25-127.43s129.25,56.43,129.25,127.43-56.43,127.43-129.25,127.43-129.25-56.43-129.25-127.43M557.04,300.36c0,118.33-109.22,182.04-225.73,242.11l-23.67-254.85c0-67.35,52.79-118.33,121.97-118.33,74.64,0,127.43,54.61,127.43,131.07M20.02,821c0,94.66,71,165.66,162.01,165.66,96.48,0,171.12-63.71,171.12-167.48l-12.74-165.66c176.58-71,409.59-169.3,409.59-404.13C750,96.48,638.96,1.82,491.5,1.82c-85.56,0-162.01,41.87-200.24,105.58C274.88,41.87,216.63,0,147.45,0,65.53,0,0,56.43,0,143.81l192.96,467.84c-94.66,50.97-172.94,112.86-172.94,209.34"/>
  </g>
</svg>